# Blender v2.78 (sub 0) OBJ File: 'Route03.blend'
# www.blender.org
mtllib Route03.mtl
o NurbsPath
v -8.735454 0.601270 -31.227789
v -6.107644 0.152177 -30.091545
v -3.439588 -0.273350 -29.005095
v -0.744063 -0.672648 -27.940933
v 1.963952 -1.043428 -26.873859
v 4.667276 -1.383782 -25.780983
v 7.346522 -1.692175 -24.641705
v 9.980106 -1.967453 -23.437746
v 12.544235 -2.208836 -22.153109
v 15.012921 -2.415925 -20.774120
v 17.357967 -2.588695 -19.289396
v 19.548969 -2.727499 -17.689856
v 21.553335 -2.833068 -15.968735
v 23.336578 -2.906492 -14.121668
v 24.865894 -2.949028 -12.147964
v 26.113718 -2.961913 -10.051851
v 27.058016 -2.946337 -7.842573
v 27.682335 -2.903454 -5.534413
v 27.975760 -2.834373 -3.146675
v 27.932928 -2.740162 -0.703692
v 27.554047 -2.621850 1.765172
v 26.844858 -2.480423 4.225532
v 25.816673 -2.316826 6.637965
v 24.486351 -2.131962 8.958032
v 22.876301 -1.926694 11.136256
v 21.014290 -1.701826 13.118734
v 18.931215 -1.457935 14.853708
v 16.658869 -1.195198 16.298115
v 14.229746 -0.913375 17.418203
v 11.677044 -0.611810 18.189529
v 9.034660 -0.289432 18.596952
v 6.337198 0.055248 18.634640
v 3.619947 0.424132 18.306053
v 0.918912 0.819541 17.623966
v -1.729209 1.244210 16.610460
v -4.287015 1.701291 15.296921
v -6.716404 2.194351 13.724034
v -8.978832 2.727286 11.941174
v -11.038113 3.303365 9.999548
v -12.863231 3.924272 7.945374
v -14.428589 4.590016 5.819242
v -15.714021 5.298937 3.656121
v -16.704773 6.047700 1.485363
v -17.391523 6.831300 -0.669308
v -17.770370 7.643059 -2.789785
v -17.842833 8.474626 -4.863583
v -17.615852 9.315978 -6.883838
v -17.101799 10.155419 -8.849309
v -16.318464 10.979588 -10.764375
v -15.288863 11.773613 -12.638780
v -14.039010 12.523136 -14.484956
v -12.595738 13.216260 -16.315281
v -10.986465 13.843737 -18.141838
v -9.239217 14.398980 -19.976429
v -7.382622 14.878046 -21.830563
v -5.445902 15.279650 -23.715454
v -3.458885 15.605157 -25.642040
v -1.451998 15.858582 -27.620956
v 0.543733 16.046595 -29.662552
v 2.496680 16.178518 -31.776896
v 4.374613 16.266327 -33.973755
v 6.144853 16.324429 -36.262428
v 7.775875 16.367275 -38.649723
v 9.238926 16.406979 -41.137947
v 10.508169 16.453085 -43.724689
v 11.560688 16.512577 -46.402874
v 12.376481 16.589878 -49.160709
v 12.938464 16.686848 -51.981728
v 13.232472 16.802786 -54.844761
v 13.247256 16.934423 -57.723949
v 12.974480 17.075935 -60.588711
v 12.408735 17.218933 -63.403839
v 11.547520 17.352467 -66.129356
v 10.391352 17.463219 -68.721077
v 8.944853 17.537683 -71.135094
v 7.217838 17.564350 -73.332588
v 5.225400 17.533882 -75.280060
v 2.987925 17.439133 -76.949440
v 0.531092 17.275145 -78.318092
v -2.114145 17.039141 -79.368744
v -4.911531 16.730526 -80.089539
v -7.819532 16.350903 -80.474052
v -10.791322 15.904045 -80.521240
v -13.774787 15.395923 -80.235435
v -16.712528 14.834682 -79.626450
v -19.542412 14.230526 -78.709282
v -22.203756 13.594178 -77.502533
v -24.643476 12.935390 -76.026703
v -26.816662 12.262781 -74.304062
v -28.686558 11.583852 -72.358566
v -30.224590 10.904987 -70.215996
v -31.410345 10.231439 -67.903839
v -32.231586 9.567346 -65.451340
v -32.684227 8.915718 -62.889492
v -32.772366 8.278447 -60.251019
v -32.508259 7.656304 -57.570438
v -31.912333 7.048935 -54.883972
v -31.012760 6.454930 -52.229294
v -29.840828 5.872536 -49.642044
v -28.426321 5.300376 -47.152359
v -26.797081 4.737511 -44.784554
v -24.979015 4.183440 -42.557133
v -22.996101 3.638103 -40.482765
v -20.870380 3.101876 -38.568329
v -18.621967 2.575577 -36.814865
v -16.269028 2.060459 -35.217594
v -13.827806 1.558217 -33.765926
v -11.312611 1.070985 -32.443459
l 1 2
l 2 3
l 3 4
l 4 5
l 5 6
l 6 7
l 7 8
l 8 9
l 9 10
l 10 11
l 11 12
l 12 13
l 13 14
l 14 15
l 15 16
l 16 17
l 17 18
l 18 19
l 19 20
l 20 21
l 21 22
l 22 23
l 23 24
l 24 25
l 25 26
l 26 27
l 27 28
l 28 29
l 29 30
l 30 31
l 31 32
l 32 33
l 33 34
l 34 35
l 35 36
l 36 37
l 37 38
l 38 39
l 39 40
l 40 41
l 41 42
l 42 43
l 43 44
l 44 45
l 45 46
l 46 47
l 47 48
l 48 49
l 49 50
l 50 51
l 51 52
l 52 53
l 53 54
l 54 55
l 55 56
l 56 57
l 57 58
l 58 59
l 59 60
l 60 61
l 61 62
l 62 63
l 63 64
l 64 65
l 65 66
l 66 67
l 67 68
l 68 69
l 69 70
l 70 71
l 71 72
l 72 73
l 73 74
l 74 75
l 75 76
l 76 77
l 77 78
l 78 79
l 79 80
l 80 81
l 81 82
l 82 83
l 83 84
l 84 85
l 85 86
l 86 87
l 87 88
l 88 89
l 89 90
l 90 91
l 91 92
l 92 93
l 93 94
l 94 95
l 95 96
l 96 97
l 97 98
l 98 99
l 99 100
l 100 101
l 101 102
l 102 103
l 103 104
l 104 105
l 105 106
l 106 107
l 107 108
l 108 1
o Track2
v 111.557961 -13.675745 -102.597130
v 86.241539 -13.664718 -71.628136
v -136.160202 32.351898 -268.758514
v -173.427658 32.344479 -254.228043
v -35.376289 3.024758 -174.416183
v 37.583817 -7.633918 -144.534424
v 21.824570 -7.631523 -107.769684
v -51.912186 3.023171 -137.994141
v -14.490929 -2.844045 -122.459442
v -67.986595 9.740246 -191.527039
v 75.229919 -11.266217 -126.542953
v 56.020031 -11.260409 -91.457611
v -89.047256 9.738087 -157.520432
v 0.282195 -2.843719 -159.631393
v -36.795410 9.505735 90.109711
v -15.493736 9.518897 56.253567
v 158.878860 -14.304542 -22.915810
v 131.352402 -9.821331 65.772621
v 51.326679 -1.890012 111.915367
v 46.397289 -1.878568 72.220276
v 100.064926 -9.811788 40.850864
v 119.128525 -14.288911 -18.453777
v 75.893135 -6.286390 62.092201
v 153.600784 -12.527405 24.741032
v 4.610347 3.367350 108.481102
v 14.845138 3.377246 69.812645
v 115.565834 -12.516030 12.357879
v 96.169128 -6.298270 96.572403
v 108.771149 -14.723024 -47.172413
v 142.626434 -14.740582 -68.475449
v 7.355072 81.352264 -183.907242
v 38.591629 81.355370 -158.921692
v -96.612282 26.958542 26.015572
v -98.809517 55.187691 -63.166676
v -46.083225 75.340439 -128.122772
v -18.067663 75.338364 -99.572311
v -62.748383 55.150940 -45.857918
v -60.885357 26.999195 8.027110
v -44.181576 67.446350 -72.572342
v -108.748383 40.209930 -18.162485
v -18.051325 79.591354 -155.720993
v 10.554089 79.595573 -127.761551
v -68.774170 40.238285 -19.598396
v -74.400497 67.461601 -98.779526
v -41.786114 17.046564 34.594894
v -70.873093 17.024805 62.052998
v -58.346626 78.465897 -382.024658
v -61.721516 78.478973 -421.882019
v 41.118317 82.840363 -246.731888
v 41.523834 86.238678 -314.631226
v 4.520814 87.133423 -367.050201
v 26.631172 87.168442 -400.383850
v 79.973740 86.244057 -325.658630
v 79.665634 82.834702 -236.049942
v 60.245876 87.646904 -367.515076
v 45.990646 84.325516 -280.943909
v -25.264217 84.015114 -379.719513
v -16.270554 84.041985 -418.695343
v 85.989227 84.320801 -280.606140
v 27.498199 87.622620 -344.545776
v 62.849953 82.018860 -194.919724
v 27.746191 82.019836 -214.095901
v -72.991066 10.900875 -194.719559
v -94.968323 10.898737 -161.298004
v -118.311882 62.060257 -358.080811
v -143.413712 42.495979 -305.385773
v -122.981216 25.728424 -243.573624
v -156.389984 25.724995 -221.576981
v -183.408829 42.482151 -306.011597
v -144.377167 62.073551 -388.422241
v -175.956116 33.700169 -261.142609
v -136.799316 52.225700 -334.401825
v -100.727196 18.165255 -216.829239
v -128.585495 18.163271 -188.125320
v -172.896149 52.224239 -351.636017
v -138.051697 33.708778 -273.919769
v -105.405029 70.997116 -411.609253
v -90.750214 70.982597 -374.390503
vt 0.0000 0.0000
vt 1.0000 0.0000
vt 1.0000 0.1250
vt 0.0000 0.1250
vt 0.0000 0.2500
vt 1.0000 0.2500
vt 1.0000 0.3750
vt 0.0000 0.3750
vt 0.0000 0.5000
vt 1.0000 0.5000
vt 1.0000 0.6250
vt 0.0000 0.6250
vt 1.0000 0.0000
vt 0.0000 0.0000
vt 0.0000 0.0000
vt 1.0000 0.0000
vt 1.0000 0.1250
vt 0.0000 0.1250
vt 0.0000 0.2500
vt 1.0000 0.2500
vt 1.0000 0.3750
vt 0.0000 0.3750
vt 0.0000 0.5000
vt 1.0000 0.5000
vt 1.0000 0.6250
vt 0.0000 0.6250
vt 0.0000 0.7500
vt 1.0000 0.7500
vt 1.0000 0.8750
vt 0.0000 0.8750
vt 1.0000 1.0000
vt 0.0000 1.0000
vt 0.0000 0.0000
vt 1.0000 0.0000
vt 1.0000 0.1250
vt 0.0000 0.1250
vt 0.0000 0.2500
vt 1.0000 0.2500
vt 1.0000 0.3750
vt 0.0000 0.3750
vt 0.0000 0.5000
vt 1.0000 0.5000
vt 1.0000 0.6250
vt 0.0000 0.6250
vt 0.0000 0.7500
vt 1.0000 0.7500
vt 1.0000 0.8750
vt 0.0000 0.8750
vt 1.0000 1.0000
vt 0.0000 1.0000
vt 0.0000 0.0000
vt 1.0000 0.0000
vt 1.0000 0.1250
vt 0.0000 0.1250
vt 0.0000 0.2500
vt 1.0000 0.2500
vt 1.0000 0.3750
vt 0.0000 0.3750
vt 0.0000 0.5000
vt 1.0000 0.5000
vt 1.0000 0.6250
vt 0.0000 0.6250
vt 0.0000 0.7500
vt 1.0000 0.7500
vt 1.0000 0.8750
vt 0.0000 0.8750
vt 1.0000 1.0000
vt 0.0000 1.0000
vt 1.0000 0.1250
vt 0.0000 0.1250
vt 0.0000 0.2500
vt 1.0000 0.2500
vt 1.0000 0.3750
vt 0.0000 0.3750
vt 0.0000 0.5000
vt 1.0000 0.5000
vt 1.0000 0.6250
vt 0.0000 0.6250
vt 0.0000 0.7500
vt 1.0000 0.7500
vt 1.0000 0.8750
vt 0.0000 0.8750
vt 1.0000 1.0000
vt 0.0000 1.0000
vn -0.0501 -0.9982 -0.0335
vn -0.1107 -0.9928 -0.0457
vn -0.1482 -0.9858 -0.0792
vn -0.1350 -0.9892 -0.0575
vn -0.0817 -0.9959 -0.0397
vn -0.1486 -0.9843 -0.0949
vn -0.1416 -0.9880 -0.0619
vn -0.1057 -0.9938 0.0356
vn -0.0326 -0.9977 0.0600
vn 0.0032 -0.9999 0.0106
vn -0.0673 -0.9960 0.0581
vn -0.1324 -0.9911 -0.0092
vn -0.0049 -0.9990 0.0446
vn -0.0180 -0.9996 -0.0198
vn 0.0293 -0.9990 -0.0329
vn 0.1350 -0.9803 -0.1439
vn 0.0773 -0.9255 -0.3709
vn -0.1429 -0.9682 -0.2052
vn 0.1689 -0.9511 -0.2585
vn 0.0752 -0.9943 -0.0753
vn -0.0824 -0.9422 -0.3246
vn -0.1457 -0.9820 -0.1203
vn 0.1394 -0.9902 0.0094
vn 0.0093 -0.9999 0.0080
vn -0.0065 -0.9988 -0.0478
vn 0.0076 -0.9998 -0.0191
vn -0.0148 -0.9994 -0.0318
vn 0.0727 -0.9969 0.0304
vn 0.0051 -0.9993 -0.0370
vn 0.0093 -0.9999 -0.0139
vn -0.1420 -0.9833 -0.1139
vn -0.0877 -0.9797 -0.1802
vn 0.0565 -0.9692 -0.2399
vn 0.1923 -0.9744 -0.1163
vn -0.0338 -0.9752 -0.2188
vn -0.1209 -0.9818 -0.1462
vn 0.1512 -0.9685 -0.1978
vn 0.1830 -0.9822 -0.0432
usemtl Track2
s off
f 109/1/1 110/2/1 120/3/1 119/4/1
f 114/5/2 115/6/2 117/7/2 122/8/2
f 113/9/3 116/10/3 121/11/3 118/12/3
f 122/8/4 117/7/4 116/10/4 113/9/4
f 119/4/5 120/3/5 115/6/5 114/5/5
f 121/11/6 172/13/6 171/14/6 118/12/6
f 123/15/7 124/16/7 134/17/7 133/18/7
f 127/19/8 128/20/8 131/21/8 136/22/8
f 126/23/9 129/24/9 135/25/9 132/26/9
f 125/27/10 130/28/10 137/29/10 138/30/10
f 136/22/11 131/21/11 129/24/11 126/23/11
f 133/18/12 134/17/12 128/20/12 127/19/12
f 132/26/13 135/25/13 130/28/13 125/27/13
f 138/30/14 137/29/14 110/31/14 109/32/14
f 139/33/15 140/34/15 150/35/15 149/36/15
f 143/37/16 144/38/16 147/39/16 152/40/16
f 142/41/17 145/42/17 151/43/17 148/44/17
f 141/45/18 146/46/18 153/47/18 154/48/18
f 152/40/19 147/39/19 145/42/19 142/41/19
f 149/36/20 150/35/20 144/38/20 143/37/20
f 148/44/21 151/43/21 146/46/21 141/45/21
f 154/48/22 153/47/22 124/49/22 123/50/22
f 155/51/23 156/52/23 166/53/23 165/54/23
f 159/55/24 160/56/24 163/57/24 168/58/24
f 158/59/25 161/60/25 167/61/25 164/62/25
f 157/63/26 162/64/26 169/65/26 170/66/26
f 168/58/27 163/57/27 161/60/27 158/59/27
f 165/54/28 166/53/28 160/56/28 159/55/28
f 164/62/29 167/61/29 162/64/29 157/63/29
f 170/66/30 169/65/30 140/67/30 139/68/30
f 171/14/31 172/13/31 182/69/31 181/70/31
f 175/71/32 176/72/32 179/73/32 184/74/32
f 174/75/33 177/76/33 183/77/33 180/78/33
f 173/79/34 178/80/34 185/81/34 186/82/34
f 184/74/35 179/73/35 177/76/35 174/75/35
f 181/70/36 182/69/36 176/72/36 175/71/36
f 180/78/37 183/77/37 178/80/37 173/79/37
f 186/82/38 185/81/38 156/83/38 155/84/38
l 112 111
